<?xml version="1.0" encoding="UTF-8"?><svg id="Layer_1" xmlns="http://www.w3.org/2000/svg" viewBox="0 0 1731.65 386.36"><defs><style>.cls-1{fill:#ff9800;}.cls-2{fill:#fff;}.cls-3{fill:#00b6bf;}</style></defs><path class="cls-2" d="M565.2,278.9l-5.13,22.21h-3.98c-.04-1.34-.22-3.06-.55-5.13-.33-2.08-.8-3.94-1.41-5.6-.65-1.77-1.5-3.29-2.56-4.56-1.05-1.27-2.31-2.02-3.77-2.25-1.15-.15-2.62-.27-4.4-.35-1.78-.08-3.44-.11-4.97-.11h-3.62l-15.27,66.05c-.08.3-.14.64-.17,1-.04.37-.06.72-.06,1.07,0,.92.17,1.68.52,2.28.35.6,1,1.12,1.96,1.59.77.31,2.16.68,4.18,1.12,2.02.44,3.66.68,4.93.72l-.92,3.81h-38.68l.92-3.81c1.15-.08,2.83-.23,5.02-.46,2.19-.23,3.79-.52,4.79-.87,1.54-.58,2.69-1.36,3.46-2.36.77-1,1.31-2.19,1.61-3.58l15.39-66.56h-3.06c-1.15,0-2.6.03-4.33.09-1.73.06-3.5.18-5.31.37-1.27.15-2.75.91-4.45,2.28-1.69,1.37-3.39,2.97-5.08,4.82-1.62,1.81-3.08,3.64-4.39,5.51-1.31,1.87-2.33,3.51-3.06,4.93h-4.04l5.13-22.21h71.29Z"/><path class="cls-2" d="M617.47,354.06l-.87,3.69c-3.46,1.39-6.16,2.4-8.08,3.03-1.92.63-3.87.95-5.83.95-3.08,0-5.39-.8-6.93-2.4-1.54-1.6-2.31-3.57-2.31-5.92,0-.85.08-1.78.23-2.8s.4-2.22.75-3.61l5.65-21.54c.42-1.66.76-3.15,1.01-4.5.25-1.35.37-2.42.37-3.23,0-2.58-.61-4.62-1.83-6.12-1.22-1.5-3.04-2.25-5.44-2.25s-5.08.79-7.93,2.37-5.54,3.79-8.1,6.64l-9.8,42.38h-10.77l17.17-74.29c.19-.88.36-1.63.49-2.25.13-.62.2-1.27.2-1.96,0-1.38-.23-2.45-.69-3.2-.46-.75-1.12-1.32-1.97-1.7-.73-.35-1.74-.58-3.01-.69s-2.55-.25-3.82-.4l.81-3.52,21.46-1.27.58.86-9.22,39.87h.23c3.94-3.19,7.47-5.61,10.57-7.25,3.1-1.64,6.63-2.45,10.57-2.45,3.68,0,6.55,1.07,8.62,3.2,2.07,2.14,3.1,4.94,3.1,8.4,0,.69-.11,1.92-.32,3.69s-.55,3.52-1.01,5.26l-4.85,18.53c-.31,1.23-.64,2.65-.98,4.24-.35,1.6-.52,2.84-.52,3.72,0,2.19.48,3.69,1.44,4.48s2.54,1.18,4.73,1.18c.73,0,1.78-.13,3.15-.37s2.41-.51,3.15-.78Z"/><path class="cls-2" d="M673.94,314.51c0,4.08-1.28,7.59-3.83,10.52-2.56,2.93-6.28,5.26-11.16,6.99-3.58,1.31-7.19,2.37-10.84,3.18-3.65.81-7.69,1.48-12.11,2.02,0,6.08,1.12,10.72,3.37,13.93,2.25,3.21,5.55,4.82,9.89,4.82,3.85,0,7.24-.96,10.18-2.88,2.94-1.92,5.83-4.79,8.68-8.6l3.29,2.42c-3.08,4.69-6.92,8.44-11.54,11.25-4.61,2.81-9.4,4.21-14.36,4.21-6.81,0-12.01-1.91-15.6-5.72-3.6-3.81-5.39-9.22-5.39-16.22,0-4.85.76-9.48,2.28-13.89,1.52-4.41,3.74-8.44,6.66-12.1,2.84-3.58,6.34-6.46,10.47-8.66,4.13-2.19,8.7-3.29,13.7-3.29,5.54,0,9.64,1.12,12.31,3.38,2.67,2.25,4.01,5.13,4.01,8.64ZM663.33,313.09c0-1.5-.21-2.68-.63-3.54-.42-.86-.96-1.51-1.62-1.93-.69-.46-1.42-.75-2.19-.86s-1.56-.17-2.37-.17c-4.61,0-8.87,2.53-12.77,7.6-3.9,5.07-6.37,11.38-7.41,18.94,2.69-.38,5.73-.93,9.11-1.64,3.38-.71,6.19-1.64,8.42-2.79,3.19-1.65,5.57-3.77,7.12-6.36,1.56-2.59,2.34-5.67,2.34-9.24Z"/><path class="cls-2" d="M779.32,336.41l-7.33,24.34h-64.02l.87-3.81c.96-.08,2.32-.21,4.1-.4,1.77-.19,3.06-.44,3.86-.75,1.38-.54,2.43-1.32,3.14-2.33.71-1.02,1.2-2.2,1.47-3.55l13.68-59.18c.08-.35.14-.7.2-1.07.06-.37.09-.72.09-1.07,0-.77-.16-1.47-.49-2.11-.33-.63-.91-1.18-1.76-1.64-.77-.46-1.89-.9-3.37-1.33-1.48-.42-2.74-.69-3.78-.81l.86-3.81h34.54l-.87,3.81c-.89.04-2.16.2-3.84.49s-3.14.62-4.41,1.01c-1.5.5-2.6,1.31-3.29,2.42-.69,1.12-1.19,2.28-1.5,3.5l-12.78,55.55c-.31,1.35-.55,2.54-.72,3.56-.17,1.02-.26,1.86-.26,2.51,0,2.11.86,3.44,2.57,3.98,1.71.54,4.84.81,9.38.81,2.54,0,5.44-.22,8.69-.66,3.25-.44,5.51-1.24,6.78-2.4,1.96-1.73,4.43-4.41,7.42-8.05,2.98-3.63,5.21-6.64,6.67-9.03h4.1Z"/><path class="cls-2" d="M835.98,314.51c0,4.08-1.28,7.59-3.83,10.52-2.56,2.93-6.28,5.26-11.16,6.99-3.58,1.31-7.19,2.37-10.84,3.18-3.65.81-7.69,1.48-12.11,2.02,0,6.08,1.12,10.72,3.37,13.93,2.25,3.21,5.55,4.82,9.89,4.82,3.85,0,7.24-.96,10.18-2.88,2.94-1.92,5.83-4.79,8.68-8.6l3.29,2.42c-3.08,4.69-6.92,8.44-11.54,11.25-4.61,2.81-9.4,4.21-14.36,4.21-6.81,0-12.01-1.91-15.6-5.72-3.6-3.81-5.39-9.22-5.39-16.22,0-4.85.76-9.48,2.28-13.89,1.52-4.41,3.74-8.44,6.66-12.1,2.84-3.58,6.34-6.46,10.47-8.66,4.13-2.19,8.7-3.29,13.7-3.29,5.54,0,9.64,1.12,12.31,3.38,2.67,2.25,4.01,5.13,4.01,8.64ZM825.37,313.09c0-1.5-.21-2.68-.63-3.54-.42-.86-.96-1.51-1.62-1.93-.69-.46-1.42-.75-2.19-.86s-1.56-.17-2.37-.17c-4.61,0-8.87,2.53-12.77,7.6-3.9,5.07-6.37,11.38-7.41,18.94,2.69-.38,5.73-.93,9.11-1.64,3.38-.71,6.19-1.64,8.42-2.79,3.19-1.65,5.57-3.77,7.12-6.36,1.56-2.59,2.34-5.67,2.34-9.24Z"/><path class="cls-2" d="M878.93,353.13h-.4c-.85.69-1.85,1.57-3.03,2.63s-2.54,2.07-4.12,3.03c-1.5.96-3.13,1.8-4.9,2.51-1.76.71-3.69,1.07-5.76,1.07-5.57,0-9.94-2-13.1-6-3.17-4-4.75-9.47-4.75-16.4,0-4.77.88-9.41,2.65-13.92,1.77-4.5,4.21-8.54,7.32-12.12,2.96-3.43,6.47-6.19,10.55-8.28,4.07-2.1,8.26-3.15,12.57-3.15,2.73,0,5.33.37,7.81,1.1,2.48.73,4.43,1.56,5.85,2.48l10.59-2.72.69.87-8.79,37.25c-.31,1.19-.63,2.65-.95,4.36-.33,1.71-.49,2.97-.49,3.78,0,2.19.46,3.68,1.39,4.45.92.77,2.48,1.15,4.68,1.15.73,0,1.77-.12,3.12-.35,1.35-.23,2.39-.48,3.12-.75l-.87,3.69c-3.47,1.38-6.05,2.39-7.75,3-1.69.61-3.76.92-6.18.92-2.78,0-4.97-.81-6.59-2.42-1.62-1.62-2.5-3.68-2.66-6.18ZM887.24,316.63c0-1.27-.14-2.48-.4-3.64-.27-1.15-.83-2.23-1.67-3.24-.77-.96-1.83-1.73-3.17-2.31s-3.04-.87-5.08-.87c-2.81,0-5.54.92-8.2,2.77s-5.04,4.33-7.15,7.45c-2,2.93-3.64,6.47-4.91,10.63-1.27,4.16-1.9,8.37-1.9,12.65,0,2.35.13,4.43.4,6.24.27,1.81.79,3.46,1.55,4.97.73,1.46,1.78,2.6,3.17,3.41,1.38.81,3.13,1.21,5.24,1.21s4.4-.6,6.77-1.82c2.36-1.21,5.02-3.34,7.97-6.38l7.39-31.07Z"/><path class="cls-2" d="M969.12,309.12c0,1.69-.67,3.26-1.99,4.7-1.33,1.44-2.98,2.16-4.94,2.16-1.27,0-2.52-.17-3.76-.52-1.23-.35-2.58-.86-4.04-1.56-2.11,1.19-4.29,2.66-6.54,4.41s-4.7,3.87-7.35,6.35c2.19,5.7,4.05,10.36,5.57,14,1.52,3.64,2.82,6.61,3.9,8.92,1.39,2.89,2.92,4.93,4.59,6.14s3.51,1.82,5.51,1.82c.92,0,2.19-.14,3.81-.41,1.62-.27,2.86-.56,3.75-.85l-.87,3.78c-3.58,1.45-6.39,2.42-8.43,2.92-2.04.49-4.1.74-6.18.74-2.47,0-4.57-.68-6.33-2.05-1.75-1.36-3.43-3.84-5.05-7.41-1.57-3.42-2.97-6.8-4.2-10.12-1.23-3.33-2.44-6.47-3.63-9.43l-6.66,5.63-5,22.4h-10.77l17.17-74.29c.27-1.19.45-2.02.55-2.48.09-.46.14-1.04.14-1.73,0-1.38-.23-2.45-.69-3.2-.46-.75-1.12-1.32-1.97-1.7-.81-.35-1.84-.58-3.07-.69-1.23-.12-2.49-.25-3.77-.4l.81-3.52,21.46-1.27.58.86-14.12,60.05h.23c4.34-4.69,8.29-8.76,11.84-12.2,3.56-3.44,7.27-6.95,11.16-10.53,2.77-2.54,4.96-4.28,6.57-5.22s3.34-1.41,5.19-1.41c1.96,0,3.54.55,4.73,1.64,1.19,1.1,1.79,2.59,1.79,4.47Z"/><path class="cls-2" d="M1013.82,352.38h-.35c-3.54,2.96-6.91,5.29-10.1,6.98-3.19,1.69-6.83,2.54-10.91,2.54-3.69,0-6.62-1.07-8.77-3.2-2.15-2.13-3.23-4.93-3.23-8.39,0-.92.08-2.02.23-3.29.15-1.27.52-3.15,1.09-5.65l4.49-18c.42-1.73.75-3.24.98-4.53.23-1.29.35-2.53.35-3.72,0-2.15-.36-3.58-1.07-4.3-.71-.71-2.16-1.07-4.35-1.07-.85,0-1.92.16-3.23.48s-2.32.59-3.05.79l.87-3.72c3-1.36,5.64-2.38,7.93-3.08,2.29-.7,4.12-1.05,5.51-1.05,3.08,0,5.35.69,6.84,2.08,1.48,1.38,2.22,3.46,2.22,6.23,0,.69-.08,1.64-.23,2.83s-.38,2.38-.69,3.58l-5.23,21.05c-.38,1.62-.71,3.13-.98,4.53s-.4,2.47-.4,3.2c0,2.58.62,4.62,1.88,6.12,1.25,1.5,3.09,2.25,5.52,2.25,2.81,0,5.56-.69,8.23-2.08s5.19-3.29,7.54-5.71l9.53-43.15,9.96-.69.69.86-9.91,45.17c-1.47,6.61-3.34,12.27-5.6,16.96-2.27,4.69-4.92,8.48-7.96,11.36-3.19,3.04-6.63,5.23-10.32,6.57-3.69,1.34-7.9,2.02-12.63,2.02-3.27,0-5.86-.23-7.79-.69-1.92-.46-3.44-1.1-4.56-1.9-1.12-.77-1.87-1.64-2.25-2.6-.38-.96-.58-1.92-.58-2.88,0-1.65.5-3.12,1.5-4.38s2.44-1.9,4.33-1.9c1.42,0,2.63.4,3.63,1.21,1,.81,1.81,1.69,2.42,2.65.69,1.04,1.33,2.21,1.9,3.52s1.04,2.35,1.39,3.12h1.38c2.19,0,4.51-.54,6.95-1.62s4.68-2.75,6.72-5.02c2.19-2.46,4.16-5.63,5.91-9.52,1.75-3.88,3.15-8.54,4.18-13.96Z"/><path class="cls-2" d="M1152.76,278.9l-4.73,20.48h-4.32c-.16-4.11-1.03-7.68-2.63-10.7s-3.55-4.7-5.85-5.05c-1.19-.15-2.59-.27-4.18-.35s-3.43-.12-5.51-.12h-14.02l-7.69,33.28h9.43c2.24,0,4.28-.24,6.14-.72,1.85-.48,3.65-1.49,5.38-3.03.89-.81,1.88-2.11,2.98-3.92,1.1-1.81,1.98-3.73,2.63-5.77h4.32l-7.38,32.13h-4.33c.04-.46.09-1,.14-1.62.06-.61.09-1.29.09-2.02,0-1.08-.08-2.31-.23-3.69-.16-1.38-.44-2.42-.87-3.12-1.04-1.58-2.39-2.62-4.04-3.11-1.66-.5-3.62-.75-5.89-.75h-9.4l-6.63,28.67c-.08.31-.14.63-.17.95-.04.33-.06.64-.06.95,0,.85.17,1.59.52,2.22.35.63.94,1.2,1.79,1.7.62.31,1.83.64,3.63.98,1.81.35,3.29.56,4.44.63l-.92,3.81h-35.65l.92-3.81c1.19-.08,2.73-.2,4.61-.37,1.88-.17,3.17-.39,3.86-.66,1.35-.54,2.37-1.3,3.06-2.28.69-.98,1.19-2.14,1.5-3.49l13.79-59.64c.08-.38.15-.76.2-1.12.06-.36.09-.74.09-1.12,0-.77-.14-1.43-.43-1.99s-.9-1.07-1.82-1.53c-.85-.46-2.1-.88-3.75-1.27s-3.04-.63-4.15-.75l.92-3.81h64.2Z"/><path class="cls-2" d="M1177.5,354.46l-.87,3.69c-3.54,1.42-6.36,2.41-8.48,2.97-2.12.56-3.92.84-5.42.84-3.08,0-5.38-.8-6.92-2.4-1.54-1.6-2.31-3.57-2.31-5.92,0-.89.08-1.81.23-2.77.15-.96.4-2.18.75-3.64l6.09-24.54c.31-1.35.6-2.79.89-4.33.29-1.54.43-2.85.43-3.93,0-2.15-.36-3.59-1.07-4.3-.71-.71-2.16-1.07-4.35-1.07-.85,0-1.97.14-3.37.4s-2.47.5-3.19.69l.86-3.69c3-1.35,5.69-2.35,8.07-3s4.27-.98,5.65-.98c3.15,0,5.44.75,6.86,2.25,1.42,1.5,2.13,3.52,2.13,6.06,0,.69-.08,1.64-.23,2.83-.16,1.19-.38,2.39-.69,3.58l-6.13,24.54c-.38,1.5-.72,2.97-1,4.42-.29,1.44-.43,2.63-.43,3.55,0,2.19.49,3.7,1.46,4.51s2.56,1.21,4.74,1.21c.73,0,1.77-.09,3.13-.29,1.36-.19,2.41-.42,3.14-.69ZM1181.59,280.69c0,2.19-.71,4.11-2.13,5.74-1.42,1.64-3.19,2.45-5.31,2.45-1.96,0-3.66-.78-5.08-2.34-1.42-1.56-2.13-3.34-2.13-5.34,0-2.11.71-3.96,2.13-5.54,1.42-1.57,3.12-2.36,5.08-2.36,2.19,0,3.98.74,5.36,2.22s2.08,3.2,2.08,5.16Z"/><path class="cls-2" d="M1246.41,354.06l-.87,3.69c-3.47,1.39-6.17,2.4-8.1,3.03s-3.88.95-5.85.95c-3.09,0-5.4-.8-6.95-2.4-1.54-1.6-2.31-3.57-2.31-5.92,0-.85.08-1.78.23-2.8.15-1.02.4-2.22.75-3.61l5.7-21.54c.43-1.66.77-3.15,1.01-4.5.25-1.35.37-2.42.37-3.23,0-2.58-.61-4.62-1.83-6.12-1.22-1.5-3.04-2.25-5.44-2.25s-4.94.77-7.84,2.31c-2.9,1.54-5.63,3.78-8.18,6.7l-9.86,42.38h-10.77l8.65-37.42c.19-.92.47-2.26.84-4.01.37-1.75.55-3.17.55-4.24,0-2.16-.37-3.6-1.1-4.33-.73-.73-2.2-1.1-4.4-1.1-.85,0-1.93.14-3.25.43-1.31.29-2.34.53-3.07.72l.87-3.69c3.01-1.34,5.68-2.34,8-3,2.32-.65,4.31-.98,5.97-.98,3.05,0,5.24.83,6.55,2.48,1.32,1.65,2.01,3.94,2.09,6.87h.35c4.21-3.39,7.85-5.9,10.92-7.53,3.06-1.64,6.55-2.45,10.46-2.45,3.68,0,6.55,1.07,8.62,3.2,2.07,2.14,3.1,4.94,3.1,8.4,0,.69-.11,1.92-.32,3.69s-.55,3.52-1.01,5.26l-4.85,18.53c-.35,1.23-.69,2.65-1.01,4.24-.33,1.6-.49,2.84-.49,3.72,0,2.19.48,3.69,1.44,4.48s2.54,1.18,4.73,1.18c.73,0,1.78-.13,3.15-.37s2.41-.51,3.15-.78Z"/><path class="cls-2" d="M1290.13,352.84h-.4c-.85.73-1.94,1.68-3.28,2.86s-2.75,2.2-4.21,3.09c-1.85,1.16-3.54,2.04-5.1,2.66-1.56.62-3.47.92-5.73.92-5.57,0-9.94-2.01-13.11-6.03s-4.75-9.5-4.75-16.43c0-4.85.86-9.53,2.57-14.03,1.71-4.5,4.05-8.5,7.01-12.01,2.88-3.39,6.36-6.13,10.41-8.23,4.06-2.1,8.3-3.15,12.72-3.15,2.65,0,5.29.35,7.9,1.04,2.62.69,4.77,1.54,6.46,2.54l4.51-19.61c.23-1.04.39-1.85.49-2.42.09-.58.14-1.21.14-1.9,0-1.39-.28-2.44-.84-3.17-.56-.73-1.34-1.27-2.34-1.62-.92-.35-2.19-.58-3.81-.69s-3.08-.25-4.38-.4l.81-3.52,23.36-1.27.58.86-16,69.16c-.31,1.27-.63,2.72-.95,4.35-.33,1.64-.49,2.88-.49,3.72,0,2.19.46,3.68,1.38,4.47.92.79,2.48,1.18,4.67,1.18.73,0,1.77-.12,3.11-.35,1.35-.23,2.39-.48,3.12-.75l-.87,3.69c-3.24,1.46-5.91,2.48-8.03,3.06s-4.08.87-5.89.87c-2.77,0-4.98-.72-6.62-2.17s-2.46-3.69-2.46-6.73ZM1298.34,316.06c-.08-1.12-.37-2.2-.87-3.26s-1.14-2.01-1.91-2.86c-.88-.96-2.03-1.76-3.44-2.4-1.4-.63-3.07-.95-4.99-.95-2.96,0-5.77.92-8.4,2.77s-4.96,4.31-6.96,7.39c-1.92,2.96-3.46,6.54-4.62,10.71-1.16,4.18-1.73,8.36-1.73,12.56,0,2.35.14,4.43.4,6.24s.79,3.48,1.56,5.02c.73,1.43,1.77,2.55,3.11,3.38,1.35.83,3.14,1.24,5.36,1.24s4.41-.63,6.89-1.9c2.48-1.27,5.24-3.48,8.28-6.64l7.31-31.3Z"/><path class="cls-2" d="M1370.49,314.51c0,4.08-1.28,7.59-3.84,10.52-2.56,2.93-6.28,5.26-11.16,6.99-3.58,1.31-7.19,2.37-10.84,3.18s-7.69,1.48-12.11,2.02c0,6.08,1.12,10.72,3.37,13.93,2.25,3.21,5.55,4.82,9.89,4.82,3.84,0,7.24-.96,10.18-2.88,2.94-1.92,5.83-4.79,8.68-8.6l3.29,2.42c-3.08,4.69-6.92,8.44-11.54,11.25-4.61,2.81-9.4,4.21-14.36,4.21-6.81,0-12.01-1.91-15.6-5.72-3.6-3.81-5.39-9.22-5.39-16.22,0-4.85.76-9.48,2.28-13.89s3.74-8.44,6.66-12.1c2.84-3.58,6.33-6.46,10.47-8.66,4.13-2.19,8.7-3.29,13.7-3.29,5.54,0,9.64,1.12,12.32,3.38,2.67,2.25,4.01,5.13,4.01,8.64ZM1359.87,313.09c0-1.5-.21-2.68-.63-3.54-.42-.86-.96-1.51-1.62-1.93-.69-.46-1.42-.75-2.19-.86-.77-.12-1.56-.17-2.37-.17-4.62,0-8.87,2.53-12.78,7.6s-6.37,11.38-7.41,18.94c2.69-.38,5.73-.93,9.11-1.64,3.38-.71,6.19-1.64,8.42-2.79,3.19-1.65,5.57-3.77,7.12-6.36,1.56-2.59,2.34-5.67,2.34-9.24Z"/><path class="cls-2" d="M1428.99,311.89c0,1.08-.15,2.26-.46,3.55s-.75,2.36-1.33,3.2c-.69,1.04-1.45,1.84-2.28,2.4-.83.56-2.01.84-3.55.84-2.08,0-3.63-.52-4.67-1.56s-1.56-2.19-1.56-3.46c0-1.19.29-2.53.86-4.01.58-1.48,1.17-2.95,1.79-4.41-.46,0-1.22.13-2.28.37-1.06.25-2.33.74-3.83,1.47-1.5.73-3.19,1.83-5.09,3.29-1.9,1.46-3.92,3.41-6.07,5.83l-9.29,41.34h-10.76l8.41-37.42c.19-.92.47-2.31.84-4.16s.55-3.21.55-4.1c0-2.16-.37-3.6-1.1-4.33s-2.19-1.1-4.38-1.1c-.85,0-1.92.14-3.23.43-1.31.29-2.32.53-3.05.72l.87-3.69c3-1.34,5.65-2.34,7.96-3,2.31-.65,4.29-.98,5.94-.98,3.08,0,5.27.84,6.57,2.51,1.31,1.67,1.96,4.19,1.96,7.53h.35c4.58-3.96,8.05-6.74,10.41-8.31,2.37-1.58,4.84-2.37,7.41-2.37,1.23,0,2.42.15,3.58.46,1.15.31,2.13.83,2.94,1.56.84.81,1.47,1.74,1.87,2.8.4,1.06.6,2.59.6,4.59Z"/><path class="cls-2" d="M1449.59,362.48c-5.69,0-10.43-1.01-14.22-3.03-3.79-2.02-5.68-4.66-5.68-7.93,0-1.54.56-2.98,1.67-4.32,1.12-1.35,2.48-2.02,4.1-2.02s2.78.36,3.72,1.07c.94.71,1.68,1.55,2.22,2.51.58,1,1.09,2.19,1.53,3.58.44,1.38.82,2.52,1.12,3.4.58.65,1.37,1.26,2.39,1.82s2.49.84,4.41.84c4.15,0,7.3-1.04,9.43-3.12,2.13-2.08,3.2-4.9,3.2-8.44,0-2.62-1-4.71-3-6.27-2-1.56-4.98-3-8.94-4.31-1.42-.46-3.1-1.16-5.02-2.11-1.92-.94-3.46-1.96-4.62-3.04-1.38-1.23-2.5-2.7-3.35-4.39-.85-1.69-1.27-3.7-1.27-6.01,0-4.93,2.2-9.2,6.6-12.8s9.81-5.4,16.24-5.4c1.5,0,3.11.08,4.85.23,1.73.16,3.63.58,5.71,1.27,1.81.62,3.35,1.53,4.61,2.74s1.9,2.78,1.9,4.7c0,1.58-.53,3.01-1.59,4.3-1.06,1.29-2.45,1.93-4.18,1.93-1.42,0-2.6-.31-3.52-.92s-1.69-1.44-2.31-2.48c-.62-1.04-1.12-2.15-1.5-3.35-.38-1.19-.81-2.36-1.27-3.52-.73-.31-1.38-.52-1.96-.63s-1.35-.17-2.31-.17c-3.77,0-6.63,1.01-8.57,3.04s-2.91,4.43-2.91,7.2.87,4.73,2.62,6.1c1.75,1.37,4.64,2.78,8.68,4.25,5.23,1.89,9.03,4.04,11.39,6.47,2.37,2.43,3.55,5.43,3.55,9.02,0,5.86-2.25,10.62-6.75,14.3-4.5,3.68-10.17,5.52-17.02,5.52Z"/><path class="cls-2" d="M571.84,181.31l18.01,16.65c-6.01,7.1-13.45,12.6-22.15,16.4-8.99,3.92-19.28,5.89-30.58,5.89-9.95,0-19.3-1.63-27.82-4.89-8.5-3.24-15.98-7.92-22.23-13.93-6.23-5.99-11.18-13.13-14.66-21.21-3.5-8.06-5.25-17.07-5.25-26.76s1.75-18.68,5.25-26.74c3.48-8.08,8.44-15.22,14.76-21.21,6.29-5.99,13.77-10.68,22.21-13.93,8.48-3.24,17.87-4.89,27.92-4.89,11.18,0,21.39,1.95,30.42,5.81,8.68,3.72,16.12,9.21,22.13,16.3l-18.03,16.65c-4.38-4.82-9.31-8.52-14.62-11-5.61-2.61-11.8-3.94-18.39-3.94-6.21,0-12.02,1.03-17.23,3.06-5.23,2.05-9.81,5.03-13.63,8.85-3.84,3.82-6.84,8.4-8.95,13.63-2.09,5.23-3.16,11.08-3.16,17.41s1.07,12.2,3.16,17.43c2.11,5.21,5.11,9.81,8.95,13.63,3.82,3.84,8.42,6.81,13.63,8.85,5.21,2.03,11,3.06,17.23,3.06,6.59,0,12.79-1.33,18.39-3.94,5.33-2.47,10.23-6.23,14.64-11.18Z"/><path class="cls-2" d="M678.97,128.4c-8.26-7.04-20.08-10.61-35.12-10.61-7.86,0-15.72,1.07-23.32,3.14-7.26,1.99-13.59,4.8-18.82,8.36l9.53,18.56c3.52-2.59,7.72-4.7,12.54-6.27,5.27-1.71,10.7-2.57,16.14-2.57,8.08,0,14.19,1.85,18.17,5.51,4.02,3.68,6.05,8.85,6.05,15.34v1.01h-24.22c-10.07,0-18.31,1.27-24.55,3.76-6.13,2.49-10.68,5.91-13.47,10.21-2.81,4.3-4.24,9.41-4.24,15.18s1.45,10.55,4.32,15c2.9,4.44,7.1,8,12.52,10.59,5.45,2.61,12.12,3.92,19.78,3.92,8.64,0,15.78-1.65,21.21-4.91,3.56-2.15,6.47-5.09,8.64-8.78l1.87-3.18v15.38h25.33v-56.49c0-14.98-4.18-26.11-12.38-33.13ZM664.08,187.55c-1.83,4.7-4.81,8.3-8.85,10.72-4,2.39-8.58,3.6-13.63,3.6-5.31,0-9.57-1.17-12.67-3.48-3.2-2.37-4.81-5.63-4.81-9.69,0-3.66,1.41-6.75,4.18-9.19,2.75-2.43,7.6-3.62,14.8-3.62h21.05l-.08,11.66Z"/><path class="cls-2" d="M805.65,161.35v56.67h-27.2v-52.19c0-8.32-1.89-14.62-5.61-18.66-3.74-4.06-9.05-6.13-15.8-6.13-4.76,0-9.11,1.03-12.93,3.04-3.84,2.01-6.9,5.15-9.05,9.31-2.11,4.12-3.2,9.45-3.2,15.82v48.81h-27.2v-98.75h25.89v13.75l1.75-1.97c2.98-3.34,6.25-5.93,10.03-7.96,6.55-3.52,14.15-5.31,22.56-5.31,7.8,0,14.86,1.57,20.99,4.66,6.09,3.08,10.96,7.86,14.45,14.19,3.52,6.37,5.31,14.7,5.31,24.71Z"/><path class="cls-2" d="M898.06,128.4c-8.26-7.04-20.06-10.61-35.1-10.61-7.88,0-15.72,1.07-23.34,3.14-7.24,1.99-13.57,4.8-18.82,8.36l9.53,18.56c3.52-2.59,7.74-4.7,12.56-6.27,5.25-1.71,10.68-2.57,16.12-2.57,8.08,0,14.21,1.85,18.19,5.51,4,3.68,6.03,8.85,6.03,15.34v1.01h-24.22c-10.05,0-18.31,1.27-24.53,3.76-6.15,2.49-10.7,5.91-13.49,10.21-2.81,4.3-4.24,9.41-4.24,15.18s1.47,10.55,4.34,15c2.88,4.44,7.08,8,12.5,10.59,5.47,2.61,12.12,3.92,19.8,3.92,8.62,0,15.76-1.65,21.19-4.91,3.58-2.15,6.47-5.09,8.64-8.78l1.87-3.18v15.38h25.33v-56.49c0-14.98-4.16-26.11-12.38-33.13ZM883.19,187.55c-1.83,4.68-4.8,8.3-8.85,10.72-4.02,2.39-8.6,3.6-13.63,3.6-5.33,0-9.59-1.17-12.69-3.48-3.18-2.37-4.81-5.63-4.81-9.69,0-3.66,1.41-6.75,4.18-9.19,2.77-2.43,7.62-3.62,14.8-3.62h21.05l-.06,11.66Z"/><path class="cls-2" d="M984.31,117.79v24.85c-.84-.06-1.61-.12-2.31-.18-1.03-.06-2.09-.08-3.24-.08-8.22,0-14.98,2.37-20.06,7.1-5.13,4.72-7.72,12.12-7.72,21.99v46.56h-27.2v-98.75h25.89v15.52l1.81-2.51c2.77-3.82,6.19-6.88,10.15-9.11,6.21-3.44,13.83-5.25,22.68-5.39Z"/><path class="cls-2" d="M1104.54,119.27l-44.91,105.56c-3.2,7.96-6.88,14.27-10.96,18.8-4.06,4.48-8.6,7.66-13.47,9.47-4.93,1.81-10.43,2.73-16.4,2.73-5.11,0-10.23-.8-15.24-2.37-4.66-1.49-8.56-3.52-11.6-6.03l9.73-18.96c2.11,1.67,4.48,3.04,7.1,4.02,3.04,1.17,6.09,1.77,9.07,1.77,4.34,0,7.86-1.07,10.45-3.14,2.55-2.03,4.89-5.39,6.96-10.03l.52-1.25-43.18-100.58h27.94l28.97,70.04,29.13-70.04h25.89Z"/><path class="cls-2" d="M1235.22,119.37c-5.99-9.53-14.43-17.07-25.07-22.4-5.33-2.65-11.14-4.66-17.35-6.01-6.21-1.35-12.83-2.03-19.84-2.03h-58.54v129.08h58.54c14.01,0,26.52-2.71,37.19-8.04,10.63-5.33,19.08-12.89,25.05-22.48,5.99-9.61,9.03-21.05,9.03-34.04s-3.04-24.57-9.01-34.1ZM1210.05,175.52c-3.64,6.25-8.81,11.14-15.38,14.51-6.55,3.38-14.35,5.09-23.22,5.09h-28.71v-83.29h28.71c8.87,0,16.67,1.71,23.22,5.09,6.57,3.38,11.74,8.22,15.38,14.41,3.64,6.19,5.49,13.63,5.49,22.13s-1.85,15.8-5.49,22.05Z"/><path class="cls-2" d="M1350.23,141.55c-4.5-7.6-10.72-13.53-18.43-17.61-7.74-4.08-16.57-6.15-26.21-6.15s-19.12,2.19-27.04,6.51c-7.92,4.34-14.25,10.39-18.82,17.99-4.56,7.62-6.88,16.48-6.88,26.36s2.33,18.56,6.98,26.16c4.6,7.62,11.26,13.69,19.72,18.07,8.48,4.4,18.52,6.63,29.77,6.63,8.95,0,16.95-1.39,23.78-4.14,6.51-2.61,12.04-6.35,16.44-11.14l-14.23-15.44c-3.26,2.98-6.86,5.27-10.74,6.82-4.14,1.67-9.03,2.51-14.49,2.51-6.13,0-11.54-1.15-16.08-3.38-4.6-2.27-8.2-5.61-10.74-9.95-1.33-2.27-2.31-4.87-2.96-7.68l-.28-1.23h76.51c.1-.99.18-2.01.28-3.12.12-1.43.18-2.67.18-3.74,0-10.63-2.27-19.88-6.77-27.48ZM1279.77,160.85l.18-1.17c.52-3.34,1.47-6.31,2.83-8.83,2.21-4.08,5.33-7.3,9.29-9.57,3.94-2.27,8.54-3.42,13.69-3.42s9.73,1.15,13.63,3.42c3.88,2.27,6.96,5.45,9.17,9.47,1.41,2.57,2.39,5.57,2.89,8.95l.16,1.15h-51.85Z"/><path class="cls-2" d="M1434.7,213.78c-2.77,1.83-6.05,3.22-9.81,4.18-4.08,1.02-8.38,1.55-12.77,1.55-11.54,0-20.65-2.96-27.04-8.83-6.35-5.81-9.59-14.68-9.59-26.3v-44.65h-15.54v-20.47h15.54v-22.27h27.2v22.27h25.09v20.47h-25.09v44.27c0,4.48,1.23,8.04,3.66,10.53,2.43,2.49,5.77,3.76,9.89,3.76,4.32,0,8.14-1.07,11.32-3.18l7.14,18.66Z"/><path class="cls-2" d="M1534.15,141.55c-4.5-7.62-10.72-13.53-18.43-17.61-7.74-4.08-16.57-6.15-26.21-6.15s-19.12,2.19-27.04,6.51c-7.92,4.34-14.25,10.39-18.82,17.99-4.56,7.6-6.88,16.48-6.88,26.36s2.33,18.56,6.96,26.16c4.62,7.62,11.28,13.69,19.74,18.07,8.48,4.4,18.52,6.63,29.77,6.63,8.95,0,16.95-1.39,23.78-4.14,6.51-2.61,12.04-6.35,16.44-11.14l-14.23-15.44c-3.26,3-6.86,5.27-10.73,6.82-4.14,1.67-9.03,2.51-14.49,2.51-6.13,0-11.54-1.15-16.08-3.38-4.6-2.27-8.2-5.61-10.74-9.95-1.33-2.27-2.31-4.87-2.96-7.68l-.28-1.23h76.51c.1-.99.18-2.01.28-3.12.12-1.41.18-2.65.18-3.74,0-10.63-2.27-19.88-6.77-27.48ZM1463.69,160.85l.18-1.17c.52-3.34,1.47-6.31,2.83-8.83,2.21-4.08,5.33-7.32,9.29-9.57,3.94-2.27,8.54-3.42,13.69-3.42s9.73,1.15,13.63,3.42c3.88,2.27,6.96,5.45,9.17,9.47,1.41,2.57,2.39,5.57,2.89,8.95l.16,1.15h-51.85Z"/><path class="cls-2" d="M1629.14,184.05l20.97,11.44c-3.66,7.48-9.23,13.35-16.61,17.51-7.68,4.32-16.83,6.51-27.22,6.51s-20.26-2.19-28.57-6.53c-8.28-4.32-14.86-10.41-19.54-18.07-4.68-7.66-7.06-16.5-7.06-26.26s2.37-18.74,7.06-26.34c4.68-7.62,11.26-13.67,19.54-17.99,8.3-4.34,17.91-6.53,28.57-6.53s19.54,2.19,27.22,6.51c7.38,4.16,12.95,10.11,16.61,17.69l-20.97,11.26c-2.61-4.44-5.89-7.82-9.71-10.01-4.06-2.31-8.54-3.5-13.33-3.5-5.15,0-9.85,1.19-13.97,3.5-4.14,2.33-7.46,5.67-9.85,9.93-2.37,4.26-3.6,9.47-3.6,15.48s1.23,11.22,3.6,15.48c2.39,4.26,5.71,7.6,9.85,9.93,4.12,2.31,8.83,3.5,13.97,3.5,4.76,0,9.25-1.15,13.31-3.4,3.84-2.13,7.12-5.53,9.73-10.11Z"/><path class="cls-2" d="M1731.65,213.78c-2.75,1.83-6.05,3.22-9.79,4.18-4.08,1.02-8.38,1.55-12.77,1.55-11.54,0-20.65-2.96-27.04-8.83-6.35-5.81-9.59-14.68-9.59-26.3v-44.65h-15.54v-20.47h15.54v-22.27h27.2v22.27h25.09v20.47h-25.09v44.27c0,4.5,1.23,8.04,3.66,10.53,2.43,2.49,5.75,3.76,9.89,3.76s8.12-1.07,11.32-3.18l7.12,18.66Z"/><path class="cls-1" d="M317.84,151.04v29.93c-63.83-.54-115.66-52.35-116.2-116.18h29.93c.54,47.32,38.92,85.72,86.26,86.24Z"/><path class="cls-3" d="M317.84,219.99v29.93c-101.84-.54-184.61-83.31-185.15-185.13h29.93c.54,85.34,69.86,154.68,155.22,155.2Z"/><path class="cls-1" d="M317.84,288.97v29.91c-139.88-.54-253.57-114.23-254.11-254.09h29.93c.54,123.38,100.8,223.63,224.17,224.17Z"/><polygon class="cls-2" points="102.31 0 102.31 29.91 29.91 29.91 29.91 102.33 0 102.33 0 0 102.31 0"/><polygon class="cls-2" points="382.61 0 382.61 102.33 352.69 102.33 352.69 29.91 280.3 29.91 280.3 0 382.61 0"/><polygon class="cls-2" points="102.31 352.7 102.31 382.63 0 382.63 0 280.3 29.91 280.3 29.91 352.7 102.31 352.7"/><polygon class="cls-2" points="382.61 280.3 382.61 382.63 280.3 382.63 280.3 352.7 352.69 352.7 352.69 280.3 382.61 280.3"/></svg>